<svg xmlns="http://www.w3.org/2000/svg" width="411.49" height="955.925" viewBox="0 0 411.49 955.925">
  <g id="Group_7" data-name="Group 7" transform="translate(294.269 -1678.619)">
    <path id="Path_14" data-name="Path 14" d="M0,158.142,158.142,0,316.285,158.142,474.427,0,632.569,158.142,790.712,0,948.854,158.142" transform="translate(110.15 1682.154) rotate(90)" fill="none" stroke="#000" stroke-width="10"/>
    <path id="Path_15" data-name="Path 15" d="M0,158.142,158.142,0,316.285,158.142,474.427,0,632.569,158.142,790.712,0,948.854,158.142" transform="translate(30.415 1682.154) rotate(90)" fill="none" stroke="#000" stroke-width="10"/>
    <path id="Path_16" data-name="Path 16" d="M0,158.142,158.142,0,316.285,158.142,474.427,0,632.569,158.142,790.712,0,948.854,158.142" transform="translate(-49.32 1682.154) rotate(90)" fill="none" stroke="#000" stroke-width="10"/>
    <path id="Path_17" data-name="Path 17" d="M0,158.142,158.142,0,316.285,158.142,474.427,0,632.569,158.142,790.712,0,948.854,158.142" transform="translate(-129.055 1682.154) rotate(90)" fill="none" stroke="#000" stroke-width="10"/>
  </g>
</svg>
